<?xml version="1.0" encoding="UTF-8"?>
<svg width="64px" height="64px" viewBox="0 0 64 64" version="1.1" xmlns="http://www.w3.org/2000/svg" xmlns:xlink="http://www.w3.org/1999/xlink">
    <!-- Generator: Sketch 43.2 (39069) - http://www.bohemiancoding.com/sketch -->
    <title>accountsettings</title>
    <desc>Created with Sketch.</desc>
    <defs></defs>
    <g id="Business-(100)" stroke="none" stroke-width="1" fill="none" fill-rule="evenodd">
        <path d="M44.3800958,27.2085229 L42.8076118,25.636039 L45.636039,22.8076118 L47.2085229,24.3800958 C48.0544216,23.8470663 48.9952899,23.4509973 50,23.2230164 L50,21 L54,21 L54,23.2230164 C55.0047101,23.4509973 55.9455784,23.8470663 56.7914771,24.3800958 L58.363961,22.8076118 L61.1923882,25.636039 L59.6199042,27.2085229 C60.1529337,28.0544216 60.5490027,28.9952899 60.7769836,30 L63,30 L63,34 L60.7769836,34 C60.5490027,35.0047101 60.1529337,35.9455784 59.6199042,36.7914771 L61.1923882,38.363961 L58.363961,41.1923882 L56.7914771,39.6199042 C55.9455784,40.1529337 55.0047101,40.5490027 54,40.7769836 L54,43 L50,43 L50,40.7769836 C48.9952899,40.5490027 48.0544216,40.1529337 47.2085229,39.6199042 L45.636039,41.1923882 L42.8076118,38.363961 L44.3800958,36.7914771 C43.8470663,35.9455784 43.4509973,35.0047101 43.2230164,34 L41,34 L41,30 L43.2230164,30 C43.4509973,28.9952899 43.8470663,28.0544216 44.3800958,27.2085229 Z M52,35 C53.6568542,35 55,33.6568542 55,32 C55,30.3431458 53.6568542,29 52,29 C50.3431458,29 49,30.3431458 49,32 C49,33.6568542 50.3431458,35 52,35 Z" id="Combined-Shape-Copy-104" fill="#22BA8E"></path>
        <path d="M24,31.9474411 L40,31.9474411" id="Line" stroke="#979797" stroke-width="2" stroke-linecap="square"></path>
        <path d="M1,45.0023695 C1,42.7919219 2.78716697,40.7942228 4.96428975,40.5435455 L18,39.0425936 L31.0357102,40.5435455 C33.225127,40.7956384 35,42.7918218 35,45.0023695 L35,52 L1,52 L1,45.0023695 Z" id="Rectangle-90-Copy-16" fill="#595959"></path>
        <path d="M12,33.3164468 C8.98979073,30.470456 7,25.8615543 7,22 C7,15.9248678 11.9248678,11 18,11 C24.0751322,11 29,15.9248678 29,22 C29,25.8615543 27.0102093,30.470456 24,33.3164468 L24,39.7734539 C24,39.7734539 19.9325778,41 18,41 C16.0674222,41 12,39.7734539 12,39.7734539 L12,33.3164468 Z" id="Combined-Shape-Copy-65" fill="#FFDD95"></path>
        <circle id="Oval-59-Copy-13" fill="#FFDD95" cx="9" cy="27" r="3"></circle>
        <circle id="Oval-59-Copy-12" fill="#FFDD95" cx="27" cy="27" r="3"></circle>
        <polygon id="Rectangle-415-Copy-2" fill="#FFFFFF" points="10 38.9474411 17.9977085 40.8253708 10 44.9474411"></polygon>
        <polyline id="Rectangle-415-Copy-3" fill="#FFFFFF" points="26.0813495 38.9474411 18 40.7982873 26.0813495 44.9474411"></polyline>
        <path d="M36,12 L36,32" id="Line" stroke="#979797" stroke-width="2" stroke-linecap="square"></path>
        <path d="M36,12 L48,12" id="Line" stroke="#979797" stroke-width="2" stroke-linecap="square"></path>
        <circle id="Oval-176-Copy-3" stroke="#979797" stroke-width="2" stroke-linecap="round" cx="52" cy="12" r="4"></circle>
    </g>
</svg>