<?xml version="1.0" encoding="UTF-8"?>
<svg width="64px" height="64px" viewBox="0 0 64 64" version="1.1" xmlns="http://www.w3.org/2000/svg" xmlns:xlink="http://www.w3.org/1999/xlink">
    <!-- Generator: Sketch 43.2 (39069) - http://www.bohemiancoding.com/sketch -->
    <title>accountteam</title>
    <desc>Created with Sketch.</desc>
    <defs></defs>
    <g id="Business-(100)" stroke="none" stroke-width="1" fill="none" fill-rule="evenodd">
        <path d="M33,53 L33,39" id="Line-Copy-458" stroke="#FFAF40" stroke-width="2" stroke-linecap="square"></path>
        <path d="M13,54 L13,48.9999433 L13,48.9999433 C13,46.7908356 14.7964248,45 17.0000255,45 L48.9999745,45 C51.2091276,45 53,46.7996535 53,48.9999433 L53,54" id="Rectangle-495-Copy-4" stroke="#FFAF40" stroke-width="2" stroke-linecap="round"></path>
        <rect id="Rectangle-496-Copy-14" fill="#5B68C0" x="8" y="54" width="10" height="9"></rect>
        <rect id="Rectangle-496-Copy-13" fill="#22BA8E" x="48" y="54" width="10" height="9"></rect>
        <rect id="Rectangle-496-Copy-12" fill="#FFAF40" x="28" y="54" width="10" height="9"></rect>
        <path d="M16,34.0023695 C16,31.7919219 17.787167,29.7942228 19.9642898,29.5435455 L33,28.0425936 L46.0357102,29.5435455 C48.225127,29.7956384 50,31.7918218 50,34.0023695 L50,41 L16,41 L16,34.0023695 Z" id="Rectangle-90-Copy-9" fill="#F5413E"></path>
        <path d="M27,23.3164468 C23.9897907,20.470456 22,15.8615543 22,12 C22,5.92486775 26.9248678,1 33,1 C39.0751322,1 44,5.92486775 44,12 C44,15.8615543 42.0102093,20.470456 39,23.3164468 L39,30 C39,30 34.9325778,31.4486507 33,31.4486507 C31.0674222,31.4486507 27,30 27,30 L27,23.3164468 Z" id="Combined-Shape-Copy-25" fill="#FFDD95"></path>
        <circle id="Oval-59-Copy-7" fill="#FFDD95" cx="24" cy="17" r="3"></circle>
        <circle id="Oval-59-Copy-6" fill="#FFDD95" cx="42" cy="17" r="3"></circle>
    </g>
</svg>