<?xml version="1.0" encoding="UTF-8"?>
<svg width="64px" height="64px" viewBox="0 0 64 64" version="1.1" xmlns="http://www.w3.org/2000/svg" xmlns:xlink="http://www.w3.org/1999/xlink">
    <!-- Generator: Sketch 43.2 (39069) - http://www.bohemiancoding.com/sketch -->
    <title>businessman</title>
    <desc>Created with Sketch.</desc>
    <defs></defs>
    <g id="Business-(100)" stroke="none" stroke-width="1" fill="none" fill-rule="evenodd">
        <path d="M9,46.9138849 C9,44.7041591 10.7750001,42.6994337 12.9692715,42.4356406 L32.875,40.0425936 L52.7807285,42.4356406 C54.9728966,42.6991808 56.75,44.6992053 56.75,46.9138849 L56.75,63.0425936 L9,63.0425936 L9,46.9138849 Z" id="Rectangle-90-Copy-3" fill="#595959"></path>
        <polygon id="Triangle-17" fill="#D8D8D8" points="33 62.8994949 25 50.8747533 41 50.8747533"></polygon>
        <path d="M24.9659091,37.0820517 C20.997906,33.3171352 18.375,27.2233999 18.375,22.1331692 C18.375,14.1250403 24.8668711,7.63316921 32.875,7.63316921 C40.8831289,7.63316921 47.375,14.1250403 47.375,22.1331692 C47.375,27.2233999 44.752094,33.3171352 40.7840909,37.0820517 L40.7840909,45.9058965 C40.7840909,45.9058965 35.4224889,47.8154815 32.875,47.8154815 C30.3275111,47.8154815 24.9659091,45.9058965 24.9659091,45.9058965 L24.9659091,37.0820517 Z" id="Combined-Shape-Copy-9" fill="#FFDD95"></path>
        <polygon id="Triangle-17-Copy" fill="#D8D8D8" transform="translate(33.000000, 47.449747) scale(1, -1) translate(-33.000000, -47.449747) " points="33 50.8994949 25 44 41 44"></polygon>
        <polygon id="Rectangle-416" fill="#4796E7" points="30.0005787 44 35.9921295 44 36.9921295 47 34.9800352 49 31.0417751 49 29.0005787 47"></polygon>
        <polygon id="Rectangle-415" fill="#FFFFFF" points="25 41 32.9977085 44.1054189 25 50.9218378"></polygon>
        <polygon id="Rectangle-415-Copy" fill="#FFFFFF" transform="translate(37.040675, 45.960919) scale(-1, 1) translate(-37.040675, -45.960919) " points="33 41 41.0813495 44.0606325 33 50.9218378"></polygon>
        <circle id="Oval-34" fill="#FFDD95" cx="18.875" cy="25" r="3"></circle>
        <circle id="Oval-34-Copy" fill="#FFDD95" cx="46.875" cy="25" r="3"></circle>
        <path d="M18.875,10.5 C18.875,7.46243388 21.3328519,5 24.3759961,5 L50.875,5 L50.875,10.5 C50.875,13.5375661 48.4171481,16 45.3740039,16 L18.875,16 L18.875,10.5 Z" id="Rectangle-91-Copy-3" fill="#FFAF40"></path>
        <polygon id="Rectangle-417" fill="#4796E7" points="31 49 35 49 36 63 30 63"></polygon>
    </g>
</svg>