<?xml version="1.0" encoding="UTF-8"?>
<svg width="64px" height="64px" viewBox="0 0 64 64" version="1.1" xmlns="http://www.w3.org/2000/svg" xmlns:xlink="http://www.w3.org/1999/xlink">
    <!-- Generator: Sketch 43.2 (39069) - http://www.bohemiancoding.com/sketch -->
    <title>displaystats</title>
    <desc>Created with Sketch.</desc>
    <defs></defs>
    <g id="Business-(100)" stroke="none" stroke-width="1" fill="none" fill-rule="evenodd">
        <rect id="Rectangle-176-Copy" fill="#D8D8D8" x="30" y="45" width="6" height="11"></rect>
        <rect id="Rectangle-177-Copy" stroke="#979797" stroke-width="2" x="26" y="57" width="14" height="1"></rect>
        <path d="M3,10.995507 C3,9.34113416 4.33730974,8 5.99593743,8 L60.0040626,8 C61.6586731,8 63,9.34246828 63,10.995507 L63,44.004493 C63,45.6588658 61.6626903,47 60.0040626,47 L5.99593743,47 C4.34132688,47 3,45.6575317 3,44.004493 L3,10.995507 Z" id="Rectangle-175-Copy" fill="#868686"></path>
        <rect id="Rectangle-178-Copy" fill="#FFAF40" x="6" y="11" width="54" height="33"></rect>
        <rect id="Rectangle-180" fill="#FF5EAC" x="34" y="23" width="5" height="18"></rect>
        <rect id="Rectangle-180-Copy-4" fill="#FF5EAC" x="18" y="23" width="5" height="18"></rect>
        <rect id="Rectangle-180-Copy-2" fill="#5B68C0" x="50" y="29" width="5" height="12"></rect>
        <rect id="Rectangle-180-Copy-5" fill="#FFFFFF" x="10" y="35" width="5" height="6"></rect>
        <rect id="Rectangle-180-Copy-3" fill="#5B68C0" x="26" y="29" width="5" height="12"></rect>
        <rect id="Rectangle-180-Copy" fill="#BD7575" x="42" y="19" width="5" height="22"></rect>
    </g>
</svg>