<?xml version="1.0" encoding="UTF-8"?>
<svg width="64px" height="64px" viewBox="0 0 64 64" version="1.1" xmlns="http://www.w3.org/2000/svg" xmlns:xlink="http://www.w3.org/1999/xlink">
    <!-- Generator: Sketch 43.2 (39069) - http://www.bohemiancoding.com/sketch -->
    <title>dollarchat</title>
    <desc>Created with Sketch.</desc>
    <defs></defs>
    <g id="Business-(100)" stroke="none" stroke-width="1" fill="none" fill-rule="evenodd">
        <path d="M26,54.0023695 C26,51.7919219 27.787167,49.7942228 29.9642898,49.5435455 L43,48.0425936 L56.0357102,49.5435455 C58.225127,49.7956384 60,51.7918218 60,54.0023695 L60,61 L26,61 L26,54.0023695 Z" id="Rectangle-90-Copy-21" fill="#FF78C7"></path>
        <path d="M37,43.3164468 C33.9897907,40.470456 32,35.8615543 32,32 C32,25.9248678 36.9248678,21 43,21 C49.0751322,21 54,25.9248678 54,32 C54,35.8615543 52.0102093,40.470456 49,43.3164468 L49,50 C49,50 44.9325778,51.4486507 43,51.4486507 C41.0674222,51.4486507 37,50 37,50 L37,43.3164468 Z" id="Combined-Shape-Copy-76" fill="#FFDD95"></path>
        <circle id="Oval-59-Copy-23" fill="#FFDD95" cx="34" cy="37" r="3"></circle>
        <circle id="Oval-59-Copy-22" fill="#FFDD95" cx="52" cy="37" r="3"></circle>
        <path d="M12.375,30 L37.9976004,30 C39.1037214,30 40,29.1059106 40,28.0029953 L40,5.99700466 C40,4.89497885 39.1034952,4 37.9976004,4 L5.00239962,4 C3.89627863,4 3,4.89408944 3,5.99700466 L3,28.0029953 C3,29.1050211 3.89650485,30 5.00239962,30 L8,30 L8,35 L12.375,30 Z" id="Combined-Shape-Copy-75" fill="#22BA8E"></path>
        <path d="M13.336,10.05 C13.528001,10.1340004 13.624,10.2839989 13.624,10.5 C13.624,10.8240016 13.4740015,11.0579993 13.174,11.202 C12.981999,11.2980005 12.7120017,11.346 12.364,11.346 C12.0519984,11.346 11.7340016,11.2950005 11.41,11.193 C11.0859984,11.0909995 10.9060002,10.9980004 10.87,10.914 C10.665999,10.3379971 10.767998,9.92400126 11.176,9.672 C11.2720005,9.6119997 11.4579986,9.582 11.734,9.582 C12.4900038,9.582 13.0239984,9.73799844 13.336,10.05 Z M15.874,16.656 C15.874,17.5320044 15.4060047,18.6059936 14.47,19.878 C13.5699955,21.0300058 12.7060041,21.606 11.878,21.606 C11.0619959,21.606 10.2340042,21.3540025 9.394,20.85 C8.6739964,20.3219974 8.32599988,19.8360022 8.35,19.392 C8.37400012,19.1399987 8.67999706,19.014 9.268,19.014 C9.76000246,19.014 10.2159979,19.0979992 10.636,19.266 C10.7800007,19.3860006 11.0139984,19.5359991 11.338,19.716 C11.542001,19.7280001 11.8329981,19.4940024 12.211,19.014 C12.5890019,18.5339976 12.778,18.1620013 12.778,17.898 C12.778,17.7419992 12.676001,17.664 12.472,17.664 C12.3639995,17.664 11.908004,17.6999996 11.104,17.772 C10.299996,17.8440004 9.69400204,17.88 9.286,17.88 C8.37399544,17.88 7.80400114,17.6100027 7.576,17.07 C7.56399994,17.0579999 7.558,16.9980005 7.558,16.89 C7.558,16.2659969 8.0979946,15.3180064 9.178,14.046 C10.3660059,12.6899932 11.3919957,12.012 12.256,12.012 C12.8680031,12.012 13.4859969,12.2459977 14.11,12.714 C14.7700033,13.1340021 15.0760002,13.4579989 15.028,13.686 C14.8839993,14.4540038 14.3980041,14.838 13.57,14.838 C13.4379993,14.838 13.2940008,14.8170002 13.138,14.775 C12.9819992,14.7329998 12.8200008,14.6010011 12.652,14.379 C12.4839992,14.1569989 12.304001,14.046 12.112,14.046 C11.8959989,14.046 11.5090028,14.348997 10.951,14.955 C10.3929972,15.561003 10.114,15.9959987 10.114,16.26 C10.114,16.2960002 10.1619995,16.314 10.258,16.314 C10.4380009,16.314 11.031995,16.2060011 12.04,15.99 C13.048005,15.7739989 13.8339972,15.666 14.398,15.666 C15.3820049,15.666 15.874,15.9959967 15.874,16.656 Z M13.354,23.28 C13.354,23.7840025 13.0120034,24.1499989 12.328,24.378 C12.1479991,24.4260002 11.8270023,24.3630009 11.365,24.189 C10.9029977,24.0149991 10.6660001,23.8560007 10.654,23.712 C10.5939997,23.2079975 10.6959987,22.8660009 10.96,22.686 C11.1040007,22.5779995 11.3379984,22.524 11.662,22.524 C12.058002,22.524 12.4239983,22.5779995 12.76,22.686 C13.0960017,22.7940005 13.2789998,22.9049994 13.309,23.019 C13.3390001,23.1330006 13.354,23.2199997 13.354,23.28 Z" id="$-copy-5" fill="#FFDD95"></path>
        <path d="M23.336,10.05 C23.528001,10.1340004 23.624,10.2839989 23.624,10.5 C23.624,10.8240016 23.4740015,11.0579993 23.174,11.202 C22.981999,11.2980005 22.7120017,11.346 22.364,11.346 C22.0519984,11.346 21.7340016,11.2950005 21.41,11.193 C21.0859984,11.0909995 20.9060002,10.9980004 20.87,10.914 C20.665999,10.3379971 20.767998,9.92400126 21.176,9.672 C21.2720005,9.6119997 21.4579986,9.582 21.734,9.582 C22.4900038,9.582 23.0239984,9.73799844 23.336,10.05 Z M25.874,16.656 C25.874,17.5320044 25.4060047,18.6059936 24.47,19.878 C23.5699955,21.0300058 22.7060041,21.606 21.878,21.606 C21.0619959,21.606 20.2340042,21.3540025 19.394,20.85 C18.6739964,20.3219974 18.3259999,19.8360022 18.35,19.392 C18.3740001,19.1399987 18.6799971,19.014 19.268,19.014 C19.7600025,19.014 20.2159979,19.0979992 20.636,19.266 C20.7800007,19.3860006 21.0139984,19.5359991 21.338,19.716 C21.542001,19.7280001 21.8329981,19.4940024 22.211,19.014 C22.5890019,18.5339976 22.778,18.1620013 22.778,17.898 C22.778,17.7419992 22.676001,17.664 22.472,17.664 C22.3639995,17.664 21.908004,17.6999996 21.104,17.772 C20.299996,17.8440004 19.694002,17.88 19.286,17.88 C18.3739954,17.88 17.8040011,17.6100027 17.576,17.07 C17.5639999,17.0579999 17.558,16.9980005 17.558,16.89 C17.558,16.2659969 18.0979946,15.3180064 19.178,14.046 C20.3660059,12.6899932 21.3919957,12.012 22.256,12.012 C22.8680031,12.012 23.4859969,12.2459977 24.11,12.714 C24.7700033,13.1340021 25.0760002,13.4579989 25.028,13.686 C24.8839993,14.4540038 24.3980041,14.838 23.57,14.838 C23.4379993,14.838 23.2940008,14.8170002 23.138,14.775 C22.9819992,14.7329998 22.8200008,14.6010011 22.652,14.379 C22.4839992,14.1569989 22.304001,14.046 22.112,14.046 C21.8959989,14.046 21.5090028,14.348997 20.951,14.955 C20.3929972,15.561003 20.114,15.9959987 20.114,16.26 C20.114,16.2960002 20.1619995,16.314 20.258,16.314 C20.4380009,16.314 21.031995,16.2060011 22.04,15.99 C23.048005,15.7739989 23.8339972,15.666 24.398,15.666 C25.3820049,15.666 25.874,15.9959967 25.874,16.656 Z M23.354,23.28 C23.354,23.7840025 23.0120034,24.1499989 22.328,24.378 C22.1479991,24.4260002 21.8270023,24.3630009 21.365,24.189 C20.9029977,24.0149991 20.6660001,23.8560007 20.654,23.712 C20.5939997,23.2079975 20.6959987,22.8660009 20.96,22.686 C21.1040007,22.5779995 21.3379984,22.524 21.662,22.524 C22.058002,22.524 22.4239983,22.5779995 22.76,22.686 C23.0960017,22.7940005 23.2789998,22.9049994 23.309,23.019 C23.3390001,23.1330006 23.354,23.2199997 23.354,23.28 Z" id="$-copy-6" fill="#FFDD95"></path>
        <path d="M33.336,10.05 C33.528001,10.1340004 33.624,10.2839989 33.624,10.5 C33.624,10.8240016 33.4740015,11.0579993 33.174,11.202 C32.981999,11.2980005 32.7120017,11.346 32.364,11.346 C32.0519984,11.346 31.7340016,11.2950005 31.41,11.193 C31.0859984,11.0909995 30.9060002,10.9980004 30.87,10.914 C30.665999,10.3379971 30.767998,9.92400126 31.176,9.672 C31.2720005,9.6119997 31.4579986,9.582 31.734,9.582 C32.4900038,9.582 33.0239984,9.73799844 33.336,10.05 Z M35.874,16.656 C35.874,17.5320044 35.4060047,18.6059936 34.47,19.878 C33.5699955,21.0300058 32.7060041,21.606 31.878,21.606 C31.0619959,21.606 30.2340042,21.3540025 29.394,20.85 C28.6739964,20.3219974 28.3259999,19.8360022 28.35,19.392 C28.3740001,19.1399987 28.6799971,19.014 29.268,19.014 C29.7600025,19.014 30.2159979,19.0979992 30.636,19.266 C30.7800007,19.3860006 31.0139984,19.5359991 31.338,19.716 C31.542001,19.7280001 31.8329981,19.4940024 32.211,19.014 C32.5890019,18.5339976 32.778,18.1620013 32.778,17.898 C32.778,17.7419992 32.676001,17.664 32.472,17.664 C32.3639995,17.664 31.908004,17.6999996 31.104,17.772 C30.299996,17.8440004 29.694002,17.88 29.286,17.88 C28.3739954,17.88 27.8040011,17.6100027 27.576,17.07 C27.5639999,17.0579999 27.558,16.9980005 27.558,16.89 C27.558,16.2659969 28.0979946,15.3180064 29.178,14.046 C30.3660059,12.6899932 31.3919957,12.012 32.256,12.012 C32.8680031,12.012 33.4859969,12.2459977 34.11,12.714 C34.7700033,13.1340021 35.0760002,13.4579989 35.028,13.686 C34.8839993,14.4540038 34.3980041,14.838 33.57,14.838 C33.4379993,14.838 33.2940008,14.8170002 33.138,14.775 C32.9819992,14.7329998 32.8200008,14.6010011 32.652,14.379 C32.4839992,14.1569989 32.304001,14.046 32.112,14.046 C31.8959989,14.046 31.5090028,14.348997 30.951,14.955 C30.3929972,15.561003 30.114,15.9959987 30.114,16.26 C30.114,16.2960002 30.1619995,16.314 30.258,16.314 C30.4380009,16.314 31.031995,16.2060011 32.04,15.99 C33.048005,15.7739989 33.8339972,15.666 34.398,15.666 C35.3820049,15.666 35.874,15.9959967 35.874,16.656 Z M33.354,23.28 C33.354,23.7840025 33.0120034,24.1499989 32.328,24.378 C32.1479991,24.4260002 31.8270023,24.3630009 31.365,24.189 C30.9029977,24.0149991 30.6660001,23.8560007 30.654,23.712 C30.5939997,23.2079975 30.6959987,22.8660009 30.96,22.686 C31.1040007,22.5779995 31.3379984,22.524 31.662,22.524 C32.058002,22.524 32.4239983,22.5779995 32.76,22.686 C33.0960017,22.7940005 33.2789998,22.9049994 33.309,23.019 C33.3390001,23.1330006 33.354,23.2199997 33.354,23.28 Z" id="$-copy-7" fill="#FFDD95"></path>
    </g>
</svg>