<?xml version="1.0" encoding="UTF-8"?>
<svg width="64px" height="64px" viewBox="0 0 64 64" version="1.1" xmlns="http://www.w3.org/2000/svg" xmlns:xlink="http://www.w3.org/1999/xlink">
    <!-- Generator: Sketch 43.2 (39069) - http://www.bohemiancoding.com/sketch -->
    <title>dollartablet</title>
    <desc>Created with Sketch.</desc>
    <defs></defs>
    <g id="Business-(100)" stroke="none" stroke-width="1" fill="none" fill-rule="evenodd">
        <rect id="Rectangle-165" fill="#D8D8D8" transform="translate(24.000000, 30.000000) rotate(-270.000000) translate(-24.000000, -30.000000) " x="-5" y="10" width="58" height="40" rx="2"></rect>
        <circle id="Oval-63" fill="#868686" transform="translate(24.000000, 56.000000) rotate(-270.000000) translate(-24.000000, -56.000000) " cx="24" cy="56" r="2"></circle>
        <rect id="Rectangle-165-Copy" fill="#325AA6" transform="translate(24.000000, 28.500000) rotate(-270.000000) translate(-24.000000, -28.500000) " x="-0.5" y="10.5" width="49" height="36" rx="1"></rect>
        <rect id="Rectangle-451" fill="#22BA8E" x="6" y="10" width="46" height="19"></rect>
        <circle id="Oval-155" fill="#80D25B" cx="28.5" cy="19.5" r="6.5"></circle>
        <rect id="Rectangle-114" fill="#FFDD95" transform="translate(54.294229, 53.578838) rotate(-30.000000) translate(-54.294229, -53.578838) " x="47.2942286" y="47.5788383" width="14" height="12"></rect>
        <path d="M41.4772413,35.6733938 L52.4771193,35.6733938 C54.1340409,35.6733938 55.4772413,37.0263193 55.4772413,38.6659335 L55.4772413,48.6832939 C55.4772413,51.43925 53.2418285,53.6733938 50.485215,53.6733938 L38.4746632,53.6733938 C37.3715176,53.6733938 36.4772413,52.780771 36.4772413,51.6783045 L36.4772413,37.919527 L36.4772413,25.1762166 C36.4772413,23.7939457 37.5869034,22.6733938 38.9772413,22.6733938 C40.3579532,22.6733938 41.4772413,23.7993744 41.4772413,25.1762166 L41.4772413,35.6733938 Z" id="Combined-Shape" fill="#FFDD95" transform="translate(45.977241, 38.173394) rotate(-30.000000) translate(-45.977241, -38.173394) "></path>
        <path d="M43.1961524,38.3564065 L43.1961524,42.3564065" id="Line" stroke="#FFCC60" stroke-width="2" stroke-linecap="square" transform="translate(43.196152, 40.356406) rotate(-30.000000) translate(-43.196152, -40.356406) "></path>
        <path d="M46.660254,36.3564065 L46.660254,40.3564065" id="Line-Copy-108" stroke="#FFCC60" stroke-width="2" stroke-linecap="square" transform="translate(46.660254, 38.356406) rotate(-30.000000) translate(-46.660254, -38.356406) "></path>
        <path d="M50.1243557,34.3564065 L50.1243557,38.3564065" id="Line-Copy-109" stroke="#FFCC60" stroke-width="2" stroke-linecap="square" transform="translate(50.124356, 36.356406) rotate(-30.000000) translate(-50.124356, -36.356406) "></path>
        <path d="M30.1657403,13.7791514 C30.3375622,13.8543235 30.4234719,13.9885574 30.4234719,14.181857 C30.4234719,14.4718065 30.289238,14.6812114 30.0207662,14.8100778 C29.8489443,14.8959888 29.6073233,14.9389436 29.2958961,14.9389436 C29.0166855,14.9389436 28.7321097,14.8933041 28.4421602,14.8020237 C28.1522107,14.7107433 27.99113,14.6275183 27.9589134,14.5523462 C27.7763526,14.0368804 27.8676317,13.666395 28.2327532,13.4408787 C28.3186642,13.3871843 28.4851142,13.3603376 28.7321082,13.3603376 C29.4086571,13.3603376 29.8865296,13.4999408 30.1657403,13.7791514 Z M32.437,19.69087 C32.437,20.4748076 32.0181903,21.4359221 31.1805584,22.5742423 C30.3751432,23.6051739 29.6019561,24.1206319 28.860974,24.1206319 C28.1307308,24.1206319 27.3897599,23.895119 26.638039,23.4440865 C25.9937067,22.9715762 25.6822842,22.5366584 25.7037619,22.1393202 C25.7252396,21.913804 25.9990767,21.8010475 26.5252814,21.8010475 C26.9655751,21.8010475 27.373646,21.8762185 27.7495065,22.0265627 C27.8783729,22.1339514 28.0877778,22.2681852 28.3777273,22.4292683 C28.5602881,22.4400072 28.8207018,22.2306023 29.1589762,21.8010475 C29.4972506,21.3714927 29.6663853,21.0385927 29.6663853,20.8023376 C29.6663853,20.6627322 29.5751063,20.5929306 29.3925455,20.5929306 C29.2958956,20.5929306 28.8878247,20.6251468 28.1683203,20.68958 C27.448816,20.7540132 26.9065112,20.7862293 26.5413896,20.7862293 C25.7252355,20.7862293 25.2151468,20.5446084 25.0111082,20.0613592 C25.0003694,20.0506203 24.995,19.9969268 24.995,19.9002769 C24.995,19.3418557 25.4782419,18.4934976 26.4447403,17.3551774 C27.5078884,16.141685 28.4260481,15.5349479 29.1992468,15.5349479 C29.7469291,15.5349479 30.2999727,15.7443528 30.8583939,16.1631687 C31.4490318,16.5390292 31.7228689,16.8289743 31.6799134,17.0330129 C31.551047,17.7203006 31.1161292,18.0639393 30.3751472,18.0639393 C30.2570196,18.0639393 30.1281551,18.0451465 29.9885498,18.0075605 C29.8489445,17.9699745 29.7039719,17.8518486 29.5536277,17.6531795 C29.4032835,17.4545104 29.2422029,17.3551774 29.070381,17.3551774 C28.8770813,17.3551774 28.5307579,17.6263298 28.0314004,18.1686428 C27.532043,18.7109557 27.282368,19.1002339 27.282368,19.3364891 C27.282368,19.3687057 27.3253228,19.3848137 27.4112338,19.3848137 C27.5723168,19.3848137 28.1038829,19.2881654 29.0059481,19.0948657 C29.9080132,18.901566 30.6113986,18.8049176 31.1161255,18.8049176 C31.9967129,18.8049176 32.437,19.1002321 32.437,19.69087 Z M30.1818485,25.6186969 C30.1818485,26.0697294 29.8757953,26.3972601 29.2636797,26.6012986 C29.1025966,26.6442541 28.8153361,26.5878759 28.4018896,26.4321622 C27.9884431,26.2764486 27.7763536,26.1341607 27.7656147,26.0052943 C27.7119204,25.5542617 27.8031994,25.2482085 28.0394545,25.0871254 C28.168321,24.9904756 28.3777258,24.9421514 28.6676753,24.9421514 C29.022058,24.9421514 29.3495887,24.9904756 29.6502771,25.0871254 C29.9509654,25.1837753 30.1147307,25.2831083 30.1415779,25.3851276 C30.1684251,25.4871469 30.1818485,25.5650025 30.1818485,25.6186969 Z" id="$-copy-3" fill="#5B68C0"></path>
    </g>
</svg>