<?xml version="1.0" encoding="UTF-8"?>
<svg width="64px" height="64px" viewBox="0 0 64 64" version="1.1" xmlns="http://www.w3.org/2000/svg" xmlns:xlink="http://www.w3.org/1999/xlink">
    <!-- Generator: Sketch 43.2 (39069) - http://www.bohemiancoding.com/sketch -->
    <title>dollarmobile</title>
    <desc>Created with Sketch.</desc>
    <defs></defs>
    <g id="Business-(100)" stroke="none" stroke-width="1" fill="none" fill-rule="evenodd">
        <rect id="Rectangle-165-Copy-19" fill="#D8D8D8" transform="translate(37.000000, 33.000000) rotate(-270.000000) translate(-37.000000, -33.000000) " x="8" y="17" width="58" height="32" rx="2"></rect>
        <circle id="Oval-63-Copy-11" fill="#868686" transform="translate(37.000000, 59.000000) rotate(-270.000000) translate(-37.000000, -59.000000) " cx="37" cy="59" r="2"></circle>
        <rect id="Rectangle-165-Copy-18" fill="#325AA6" transform="translate(37.000000, 31.500000) rotate(-270.000000) translate(-37.000000, -31.500000) " x="12.5" y="17.5" width="49" height="28" rx="1"></rect>
        <rect id="Rectangle-443" fill="#22BA8E" x="13" y="18" width="38" height="29"></rect>
        <path d="M13,25 L13,25 C16.8659932,25 20,21.8659932 20,18" id="Oval-153" stroke="#80D25B" stroke-width="2"></path>
        <path d="M13,47 L13,47 C16.8659932,47 20,43.8659932 20,40" id="Oval-153-Copy" stroke="#80D25B" stroke-width="2" transform="translate(16.500000, 43.500000) scale(1, -1) translate(-16.500000, -43.500000) "></path>
        <path d="M51,23 C45.4771525,23 41,27.4771525 41,33 C41,38.5228475 45.4771525,43 51,43 L51,23 Z" id="Oval-152" fill="#80D25B"></path>
    </g>
</svg>