<?xml version="1.0" encoding="UTF-8"?>
<svg width="64px" height="64px" viewBox="0 0 64 64" version="1.1" xmlns="http://www.w3.org/2000/svg" xmlns:xlink="http://www.w3.org/1999/xlink">
    <!-- Generator: Sketch 43.2 (39069) - http://www.bohemiancoding.com/sketch -->
    <title>femaleapprove</title>
    <desc>Created with Sketch.</desc>
    <defs></defs>
    <g id="Business-(100)" stroke="none" stroke-width="1" fill="none" fill-rule="evenodd">
        <rect id="Rectangle-99" fill="#BD7575" x="16.875" y="18" width="32" height="33"></rect>
        <path d="M9,50.9206814 C9,48.707202 10.7750001,46.6994337 12.9692715,46.4356406 L32.875,44.0425936 L52.7807285,46.4356406 C54.9728966,46.6991808 56.75,48.7006188 56.75,50.9206814 L56.75,63.0425936 L9,63.0425936 L9,50.9206814 Z" id="Rectangle-90-Copy-4" fill="#FF78C7"></path>
        <path d="M26.6704545,42.4906185 C21.7663848,39.0068513 18.375,31.9212508 18.375,26.1331692 C18.375,18.1250403 24.8668711,11.6331692 32.875,11.6331692 C40.8831289,11.6331692 47.375,18.1250403 47.375,26.1331692 C47.375,31.9212508 43.9836152,39.0068513 39.0795455,42.4906185 L39.0795455,49.9058965 C39.0795455,49.9058965 34.8734611,51.8154815 32.875,51.8154815 C30.8765389,51.8154815 26.6704545,49.9058965 26.6704545,49.9058965 L26.6704545,42.4906185 Z" id="Combined-Shape-Copy-10" fill="#FFDD95"></path>
        <circle id="Oval-34-Copy-3" fill="#FFDD95" cx="19.875" cy="29" r="3"></circle>
        <circle id="Oval-34-Copy-2" fill="#FFDD95" cx="45.875" cy="29" r="3"></circle>
        <path d="M16.875,15.5 C16.875,11.9101491 19.7854073,9 23.3699533,9 L42.3800467,9 C45.9671104,9 48.875,11.9174538 48.875,15.5 L48.875,22 L32.875,16.079188 L16.875,22 L16.875,15.5 Z" id="Rectangle-91-Copy-4" fill="#BD7575"></path>
        <circle id="Oval-160-Copy" fill="#80D25B" cx="53" cy="12" r="11"></circle>
        <polyline id="Path-126-Copy" stroke="#FFFFFF" stroke-width="3" stroke-linecap="round" stroke-linejoin="round" points="47.872522 14.2698075 53.0411537 17.3182991 57.0617275 6.93572452"></polyline>
    </g>
</svg>