<?xml version="1.0" encoding="UTF-8"?>
<svg width="64px" height="64px" viewBox="0 0 64 64" version="1.1" xmlns="http://www.w3.org/2000/svg" xmlns:xlink="http://www.w3.org/1999/xlink">
    <!-- Generator: Sketch 43.2 (39069) - http://www.bohemiancoding.com/sketch -->
    <title>folderstatsdecrease</title>
    <desc>Created with Sketch.</desc>
    <defs></defs>
    <g id="Business-(100)" stroke="none" stroke-width="1" fill="none" fill-rule="evenodd">
        <path d="M32,14 L60.0040626,14 C61.6586731,14 63,15.3424683 63,16.995507 L63,50.004493 C63,51.6588658 61.6626903,53 60.0040626,53 L5.99593743,53 C4.34132688,53 3,51.6575317 3,50.004493 L3,16 L3,13.0016655 C3,11.3438914 4.34312337,10 6.00793008,10 L25.9920699,10 C27.6533038,10 29.8091867,11.0789156 30.8001978,12.4002638 L32,14 Z" id="Combined-Shape-Copy-97" fill="#DFCC00"></path>
        <circle id="Oval-165-Copy-9" fill="#E43535" transform="translate(58.000000, 45.000000) scale(-1, 1) translate(-58.000000, -45.000000) " cx="58" cy="45" r="2"></circle>
        <circle id="Oval-165-Copy-8" fill="#E43535" transform="translate(46.000000, 33.000000) scale(-1, 1) translate(-46.000000, -33.000000) " cx="46" cy="33" r="2"></circle>
        <circle id="Oval-165-Copy-7" fill="#E43535" transform="translate(34.000000, 39.000000) scale(-1, 1) translate(-34.000000, -39.000000) " cx="34" cy="39" r="2"></circle>
        <circle id="Oval-165-Copy-6" fill="#E43535" transform="translate(23.000000, 25.000000) scale(-1, 1) translate(-23.000000, -25.000000) " cx="23" cy="25" r="2"></circle>
        <circle id="Oval-165-Copy-5" fill="#E43535" transform="translate(11.000000, 25.000000) scale(-1, 1) translate(-11.000000, -25.000000) " cx="11" cy="25" r="2"></circle>
        <polyline id="Path-129-Copy" stroke="#E43535" stroke-width="2" stroke-linecap="round" transform="translate(34.362101, 34.976949) scale(-1, 1) translate(-34.362101, -34.976949) " points="10.9213608 44.8680359 22.9015394 33.0117946 34.7287877 39.0643304 45.8614774 25.0858624 57.8028405 25.0858624"></polyline>
    </g>
</svg>