<?xml version="1.0" encoding="UTF-8"?>
<svg width="64px" height="64px" viewBox="0 0 64 64" version="1.1" xmlns="http://www.w3.org/2000/svg" xmlns:xlink="http://www.w3.org/1999/xlink">
    <!-- Generator: Sketch 43.2 (39069) - http://www.bohemiancoding.com/sketch -->
    <title>papion</title>
    <desc>Created with Sketch.</desc>
    <defs></defs>
    <g id="Business-(100)" stroke="none" stroke-width="1" fill="none" fill-rule="evenodd">
        <path d="M0.25837482,22.9808736 C0.115678347,21.8868673 0.882987818,21.130813 1.98537447,21.2941296 L27,25 L27,40 L4.96402073,43.6726632 C3.87932203,43.8534463 2.88423466,43.1124657 2.74162518,42.0191264 L0.25837482,22.9808736 Z" id="Rectangle-426" fill="#FF78C7"></path>
        <path d="M37.0170699,22.9808736 C36.8743735,21.8868673 37.6416829,21.130813 38.7440696,21.2941296 L63.7586951,25 L63.7586951,40 L41.7227158,43.6726632 C40.6380171,43.8534463 39.6429298,43.1124657 39.5003203,42.0191264 L37.0170699,22.9808736 Z" id="Rectangle-426-Copy" fill="#FF78C7" transform="translate(50.379348, 32.485882) scale(-1, 1) translate(-50.379348, -32.485882) "></path>
        <rect id="Rectangle-427" fill="#D650C7" x="24" y="23" width="18" height="20" rx="4"></rect>
        <path d="M25.7177481,31.2161584 L19.8040128,29.4402595" id="Path-106" stroke="#D650C7" stroke-width="2" stroke-linecap="round"></path>
        <path d="M26.0567004,34.5788827 L20.2071479,36.4439022" id="Path-107" stroke="#D650C7" stroke-width="2" stroke-linecap="round"></path>
        <path d="M39.9678779,31.5824977 L45.4600233,29.5579133" id="Path-108" stroke="#D650C7" stroke-width="2" stroke-linecap="round"></path>
        <path d="M40.4025377,34.9537622 L45.948574,36.0789894" id="Path-109" stroke="#D650C7" stroke-width="2" stroke-linecap="round"></path>
    </g>
</svg>