<?xml version="1.0" encoding="UTF-8"?>
<svg width="64px" height="64px" viewBox="0 0 64 64" version="1.1" xmlns="http://www.w3.org/2000/svg" xmlns:xlink="http://www.w3.org/1999/xlink">
    <!-- Generator: Sketch 43.2 (39069) - http://www.bohemiancoding.com/sketch -->
    <title>partnerscancel</title>
    <desc>Created with Sketch.</desc>
    <defs></defs>
    <g id="Business-(100)" stroke="none" stroke-width="1" fill="none" fill-rule="evenodd">
        <path d="M1,35.0023695 C1,32.7919219 2.78716697,30.7942228 4.96428975,30.5435455 L18,29.0425936 L31.0357102,30.5435455 C33.225127,30.7956384 35,32.7918218 35,35.0023695 L35,42 L1,42 L1,35.0023695 Z" id="Rectangle-90-Copy-17" fill="#4796E7"></path>
        <path d="M12,24.3164468 C8.98979073,21.470456 7,16.8615543 7,13 C7,6.92486775 11.9248678,2 18,2 C24.0751322,2 29,6.92486775 29,13 C29,16.8615543 27.0102093,21.470456 24,24.3164468 L24,31 C24,31 19.9325778,32.4486507 18,32.4486507 C16.0674222,32.4486507 12,31 12,31 L12,24.3164468 Z" id="Combined-Shape-Copy-66" fill="#FFDD95"></path>
        <circle id="Oval-59-Copy-15" fill="#FFDD95" cx="9" cy="18" r="3"></circle>
        <circle id="Oval-59-Copy-14" fill="#FFDD95" cx="27" cy="18" r="3"></circle>
        <path d="M29,49.0023695 C29,46.7919219 30.787167,44.7942228 32.9642898,44.5435455 L46,43.0425936 L59.0357102,44.5435455 C61.225127,44.7956384 63,46.7918218 63,49.0023695 L63,56 L29,56 L29,49.0023695 Z" id="Rectangle-90-Copy-16" fill="#BD7575"></path>
        <path d="M40,38.3164468 C36.9897907,35.470456 35,30.8615543 35,27 C35,20.9248678 39.9248678,16 46,16 C52.0751322,16 57,20.9248678 57,27 C57,30.8615543 55.0102093,35.470456 52,38.3164468 L52,45 C52,45 47.9325778,46.4486507 46,46.4486507 C44.0674222,46.4486507 40,45 40,45 L40,38.3164468 Z" id="Combined-Shape-Copy-65" fill="#FFDD95"></path>
        <circle id="Oval-59-Copy-13" fill="#FFDD95" cx="37" cy="32" r="3"></circle>
        <circle id="Oval-59-Copy-12" fill="#FFDD95" cx="55" cy="32" r="3"></circle>
        <circle id="Oval-133" fill="#F5413E" cx="15" cy="53" r="8"></circle>
        <path d="M12.007032,50.0268893 L18,56" id="Path-104" stroke="#FFDD95" stroke-width="2" stroke-linecap="round"></path>
        <path d="M12.0169607,56.0099286 L17.9900714,50.0169607" id="Path-104-Copy" stroke="#FFDD95" stroke-width="2" stroke-linecap="round"></path>
    </g>
</svg>