<?xml version="1.0" encoding="UTF-8"?>
<svg width="64px" height="64px" viewBox="0 0 64 64" version="1.1" xmlns="http://www.w3.org/2000/svg" xmlns:xlink="http://www.w3.org/1999/xlink">
    <!-- Generator: Sketch 43.2 (39069) - http://www.bohemiancoding.com/sketch -->
    <title>partnerexchange</title>
    <desc>Created with Sketch.</desc>
    <defs></defs>
    <g id="Business-(100)" stroke="none" stroke-width="1" fill="none" fill-rule="evenodd">
        <path d="M5,18.904899 C5,17.8011519 5.89358348,16.8111018 6.99287235,16.6938803 L13.5,16 L20.0071277,16.6938803 C21.1077607,16.8112451 22,17.7936275 22,18.904899 L22,22 L5,22 L5,18.904899 Z" id="Rectangle-90-Copy-8" fill="#22BA8E"></path>
        <path d="M10.5,12.9938107 C8.99489536,11.5917827 8,9.32128716 8,7.41895934 C8,4.42615074 10.4624339,2 13.5,2 C16.5375661,2 19,4.42615074 19,7.41895934 C19,9.32128716 18.0051046,11.5917827 16.5,12.9938107 L16.5,16.2863473 C16.5,16.2863473 14.4662889,17 13.5,17 C12.5337111,17 10.5,16.2863473 10.5,16.2863473 L10.5,12.9938107 Z" id="Combined-Shape-Copy-23" fill="#FFDD95"></path>
        <path d="M41,55.904899 C41,54.8011519 41.8935835,53.8111018 42.9928723,53.6938803 L49.5,53 L56.0071277,53.6938803 C57.1077607,53.8112451 58,54.7936275 58,55.904899 L58,59 L41,59 L41,55.904899 Z" id="Rectangle-90-Copy-14" fill="#BD7575"></path>
        <path d="M46.5,49.9938107 C44.9948954,48.5917827 44,46.3212872 44,44.4189593 C44,41.4261507 46.4624339,39 49.5,39 C52.5375661,39 55,41.4261507 55,44.4189593 C55,46.3212872 54.0051046,48.5917827 52.5,49.9938107 L52.5,53.2863473 C52.5,53.2863473 50.4662889,54 49.5,54 C48.5337111,54 46.5,53.2863473 46.5,53.2863473 L46.5,49.9938107 Z" id="Combined-Shape-Copy-63" fill="#FFDD95"></path>
        <path d="M8,31.5 C8,45.0309764 18.9690236,56 32.5,56 L32.5,56 M57,31.5 C57,17.9690236 46.0309764,7 32.5,7" id="Oval-147-Copy" stroke="#D650C7" stroke-width="3" stroke-linecap="round"></path>
        <polyline id="Path-117-Copy-3" stroke="#D650C7" stroke-width="3" stroke-linecap="round" stroke-linejoin="round" points="36.3468962 13.1426113 32 7.33722861 37.6120311 3"></polyline>
        <polyline id="Path-117-Copy-2" stroke="#D650C7" stroke-width="3" stroke-linecap="round" stroke-linejoin="round" transform="translate(29.806016, 55.071306) rotate(-180.000000) translate(-29.806016, -55.071306) " points="31.3468962 60.1426113 27 54.3372286 32.6120311 50"></polyline>
    </g>
</svg>