<?xml version="1.0" encoding="UTF-8"?>
<svg width="64px" height="64px" viewBox="0 0 64 64" version="1.1" xmlns="http://www.w3.org/2000/svg" xmlns:xlink="http://www.w3.org/1999/xlink">
    <!-- Generator: Sketch 43.2 (39069) - http://www.bohemiancoding.com/sketch -->
    <title>plane</title>
    <desc>Created with Sketch.</desc>
    <defs></defs>
    <g id="Business-(100)" stroke="none" stroke-width="1" fill="none" fill-rule="evenodd">
        <polygon id="Rectangle-455" fill="#B4DFFB" points="31 7 40 7 49 30 34 30"></polygon>
        <polygon id="Rectangle-455-Copy" fill="#B4DFFB" transform="translate(40.000000, 47.500000) scale(1, -1) translate(-40.000000, -47.500000) " points="31 36 40 36 49 59 34 59"></polygon>
        <path d="M4,27 L56.9906816,27 C60.3095365,27 63,29.6930342 63,33 L63,33 C63,36.3137085 60.3115801,39 56.9906816,39 L4,39 L4,27 Z" id="Rectangle-454" fill="#4796E7"></path>
        <path d="M57,37 C59.209139,37 61,35.209139 61,33 C61,30.790861 59.209139,29 57,29 L57,37 Z" id="Oval-156" fill="#FFAF40"></path>
        <polygon id="Rectangle-456" fill="#B4DFFB" transform="translate(10.000000, 33.000000) scale(-1, 1) translate(-10.000000, -33.000000) " points="19 31 19 35 1 33"></polygon>
        <polygon id="Rectangle-455-Copy-2" fill="#B4DFFB" points="10 19 14.5 19 19 30 11.5 30"></polygon>
        <polygon id="Rectangle-455-Copy-3" fill="#B4DFFB" transform="translate(14.500000, 41.500000) scale(1, -1) translate(-14.500000, -41.500000) " points="10 36 14.5 36 19 47 11.5 47"></polygon>
    </g>
</svg>