<?xml version="1.0" encoding="UTF-8"?>
<svg width="64px" height="64px" viewBox="0 0 64 64" version="1.1" xmlns="http://www.w3.org/2000/svg" xmlns:xlink="http://www.w3.org/1999/xlink">
    <!-- Generator: Sketch 43.2 (39069) - http://www.bohemiancoding.com/sketch -->
    <title>presentationdecrease</title>
    <desc>Created with Sketch.</desc>
    <defs></defs>
    <g id="Business-(100)" stroke="none" stroke-width="1" fill="none" fill-rule="evenodd">
        <rect id="Rectangle-432-Copy-4" fill="#E43535" x="42" y="25" width="5" height="10"></rect>
        <path d="M30,2.50247397 C30,1.67268051 30.6657972,1 31.5,1 L31.5,1 C32.3284271,1 33,1.67854309 33,2.50247397 L33,49 L30,49 L30,2.50247397 Z" id="Rectangle-267-Copy-2" fill="#D8D8D8"></path>
        <rect id="Rectangle-265-Copy-2" fill="#BD7575" x="0" y="5" width="64" height="5" rx="2"></rect>
        <path d="M3,10 L60,10 L60,41.0021074 C60,43.2100825 58.1999609,45 55.9918707,45 L7.00812931,45 C4.79450062,45 3,43.2162267 3,41.0021074 L3,10 Z" id="Rectangle-266-Copy-2" fill="#B4DFFB"></path>
        <path d="M31.7242161,48 L22,55.2163054" id="Path-72-Copy-5" stroke="#D8D8D8" stroke-width="2" stroke-linecap="round"></path>
        <path d="M40.7242161,48 L31,55.2163054" id="Path-72-Copy-4" stroke="#D8D8D8" stroke-width="2" stroke-linecap="round" transform="translate(35.862108, 51.608153) scale(-1, 1) translate(-35.862108, -51.608153) "></path>
        <path d="M29,55.9597759 C29,53.7493282 30.787167,51.7516292 32.9642898,51.5009519 L46,50 L59.0357102,51.5009519 C61.225127,51.7530447 63,53.7492282 63,55.9597759 L63,62.9574064 L29,62.9574064 L29,55.9597759 Z" id="Rectangle-90-Copy-20" fill="#22BA8E"></path>
        <path d="M40,45.3164468 C36.9897907,42.470456 35,37.8615543 35,34 C35,27.9248678 39.9248678,23 46,23 C52.0751322,23 57,27.9248678 57,34 C57,37.8615543 55.0102093,42.470456 52,45.3164468 L52,52 C52,52 47.9325778,53.4486507 46,53.4486507 C44.0674222,53.4486507 40,52 40,52 L40,45.3164468 Z" id="Combined-Shape-Copy-72" fill="#FFDD95"></path>
        <circle id="Oval-59-Copy-21" fill="#FFDD95" cx="37" cy="39" r="3"></circle>
        <circle id="Oval-59-Copy-20" fill="#FFDD95" cx="55" cy="39" r="3"></circle>
        <polyline id="Path-114-Copy" stroke="#FF5EAC" stroke-width="2" stroke-linecap="round" stroke-linejoin="round" transform="translate(26.336929, 24.273132) rotate(-180.000000) translate(-26.336929, -24.273132) " points="36.3369294 14.773132 26.4300338 20.3253858 33.3808993 24.2209522 16.3369294 33.773132"></polyline>
        <polyline id="Path-115-Copy" stroke="#FF5EAC" stroke-width="2" stroke-linecap="round" stroke-linejoin="round" transform="translate(17.852464, 32.743760) rotate(-180.000000) translate(-17.852464, -32.743760) " points="15.7221771 29.5977412 19.9827516 31.4735539 19.6324533 35.8897796"></polyline>
    </g>
</svg>