<?xml version="1.0" encoding="UTF-8"?>
<svg width="64px" height="64px" viewBox="0 0 64 64" version="1.1" xmlns="http://www.w3.org/2000/svg" xmlns:xlink="http://www.w3.org/1999/xlink">
    <!-- Generator: Sketch 43.2 (39069) - http://www.bohemiancoding.com/sketch -->
    <title>presentationincrease</title>
    <desc>Created with Sketch.</desc>
    <defs></defs>
    <g id="Business-(100)" stroke="none" stroke-width="1" fill="none" fill-rule="evenodd">
        <rect id="Rectangle-432" fill="#E43535" x="42" y="25" width="5" height="10"></rect>
        <path d="M30,2.50247397 C30,1.67268051 30.6657972,1 31.5,1 L31.5,1 C32.3284271,1 33,1.67854309 33,2.50247397 L33,49 L30,49 L30,2.50247397 Z" id="Rectangle-267" fill="#D8D8D8"></path>
        <rect id="Rectangle-265" fill="#BD7575" x="0" y="5" width="64" height="5" rx="2"></rect>
        <path d="M3,10 L60,10 L60,41.0021074 C60,43.2100825 58.1999609,45 55.9918707,45 L7.00812931,45 C4.79450062,45 3,43.2162267 3,41.0021074 L3,10 Z" id="Rectangle-266" fill="#B4DFFB"></path>
        <path d="M31.7242161,48 L22,55.2163054" id="Path-72" stroke="#D8D8D8" stroke-width="2" stroke-linecap="round"></path>
        <path d="M40.7242161,48 L31,55.2163054" id="Path-72-Copy" stroke="#D8D8D8" stroke-width="2" stroke-linecap="round" transform="translate(35.862108, 51.608153) scale(-1, 1) translate(-35.862108, -51.608153) "></path>
        <path d="M29,55.9597759 C29,53.7493282 30.787167,51.7516292 32.9642898,51.5009519 L46,50 L59.0357102,51.5009519 C61.225127,51.7530447 63,53.7492282 63,55.9597759 L63,62.9574064 L29,62.9574064 L29,55.9597759 Z" id="Rectangle-90-Copy-9" fill="#D650C7"></path>
        <path d="M40,45.3164468 C36.9897907,42.470456 35,37.8615543 35,34 C35,27.9248678 39.9248678,23 46,23 C52.0751322,23 57,27.9248678 57,34 C57,37.8615543 55.0102093,42.470456 52,45.3164468 L52,52 C52,52 47.9325778,53.4486507 46,53.4486507 C44.0674222,53.4486507 40,52 40,52 L40,45.3164468 Z" id="Combined-Shape-Copy-25" fill="#FFDD95"></path>
        <circle id="Oval-59-Copy-7" fill="#FFDD95" cx="37" cy="39" r="3"></circle>
        <circle id="Oval-59-Copy-6" fill="#FFDD95" cx="55" cy="39" r="3"></circle>
        <polyline id="Path-114" stroke="#5B68C0" stroke-width="2" stroke-linecap="round" stroke-linejoin="round" points="31.6630706 17.226868 21.7561751 22.7791218 28.7070405 26.6746882 11.6630706 36.226868"></polyline>
        <polyline id="Path-115" stroke="#5B68C0" stroke-width="2" stroke-linecap="round" stroke-linejoin="round" points="28.0172484 15.1102204 32.2778229 16.9860331 31.9275246 21.4022588"></polyline>
    </g>
</svg>