<?xml version="1.0" encoding="UTF-8"?>
<svg width="64px" height="64px" viewBox="0 0 64 64" version="1.1" xmlns="http://www.w3.org/2000/svg" xmlns:xlink="http://www.w3.org/1999/xlink">
    <!-- Generator: Sketch 43.2 (39069) - http://www.bohemiancoding.com/sketch -->
    <title>strategy2</title>
    <desc>Created with Sketch.</desc>
    <defs></defs>
    <g id="Business-(100)" stroke="none" stroke-width="1" fill="none" fill-rule="evenodd">
        <rect id="Rectangle-494-Copy" fill="#E43535" x="7" y="26" width="50" height="9"></rect>
        <g id="Group-16" transform="translate(7.000000, 33.000000)">
            <path d="M25,14 L25,0" id="Line-Copy-448" stroke="#FFAF40" stroke-width="2" stroke-linecap="square"></path>
            <path d="M5,15 L5,9.9999433 L5,9.9999433 C5,7.79083562 6.79642476,6 9.00002553,6 L40.9999745,6 C43.2091276,6 45,7.79965349 45,9.9999433 L45,15" id="Rectangle-495-Copy" stroke="#FFAF40" stroke-width="2" stroke-linecap="round"></path>
            <rect id="Rectangle-496-Copy-5" fill="#5B68C0" x="0" y="15" width="10" height="9"></rect>
            <rect id="Rectangle-496-Copy-4" fill="#5B68C0" x="40" y="15" width="10" height="9"></rect>
            <rect id="Rectangle-496-Copy-3" fill="#5B68C0" x="20" y="15" width="10" height="9"></rect>
        </g>
        <path d="M32,29 L32,15" id="Line-Copy-448" stroke="#FFAF40" stroke-width="2" stroke-linecap="square" transform="translate(32.500000, 22.000000) scale(1, -1) translate(-32.500000, -22.000000) "></path>
        <path d="M12,23 L12,17.9999433 L12,17.9999433 C12,15.7908356 13.7964248,14 16.0000255,14 L47.9999745,14 C50.2091276,14 52,15.7996535 52,17.9999433 L52,23" id="Rectangle-495-Copy" stroke="#FFAF40" stroke-width="2" stroke-linecap="round" transform="translate(32.000000, 18.500000) scale(1, -1) translate(-32.000000, -18.500000) "></path>
        <rect id="Rectangle-496-Copy-5" fill="#5B68C0" transform="translate(12.000000, 9.500000) scale(1, -1) translate(-12.000000, -9.500000) " x="7" y="5" width="10" height="9"></rect>
        <rect id="Rectangle-496-Copy-4" fill="#5B68C0" transform="translate(52.000000, 9.500000) scale(1, -1) translate(-52.000000, -9.500000) " x="47" y="5" width="10" height="9"></rect>
        <rect id="Rectangle-496-Copy-3" fill="#5B68C0" transform="translate(32.000000, 9.500000) scale(1, -1) translate(-32.000000, -9.500000) " x="27" y="5" width="10" height="9"></rect>
    </g>
</svg>