<?xml version="1.0" encoding="UTF-8"?>
<svg width="64px" height="64px" viewBox="0 0 64 64" version="1.1" xmlns="http://www.w3.org/2000/svg" xmlns:xlink="http://www.w3.org/1999/xlink">
    <!-- Generator: Sketch 43.2 (39069) - http://www.bohemiancoding.com/sketch -->
    <title>supportfemale</title>
    <desc>Created with Sketch.</desc>
    <defs></defs>
    <g id="Business-(100)" stroke="none" stroke-width="1" fill="none" fill-rule="evenodd">
        <rect id="Rectangle-99" fill="#BD7575" x="16.875" y="17" width="32" height="33"></rect>
        <path d="M9,49.9206814 C9,47.707202 10.7750001,45.6994337 12.9692715,45.4356406 L32.875,43.0425936 L52.7807285,45.4356406 C54.9728966,45.6991808 56.75,47.7006188 56.75,49.9206814 L56.75,62.0425936 L9,62.0425936 L9,49.9206814 Z" id="Rectangle-90-Copy-4" fill="#FF78C7"></path>
        <path d="M26.6704545,41.4906185 C21.7663848,38.0068513 18.375,30.9212508 18.375,25.1331692 C18.375,17.1250403 24.8668711,10.6331692 32.875,10.6331692 C40.8831289,10.6331692 47.375,17.1250403 47.375,25.1331692 C47.375,30.9212508 43.9836152,38.0068513 39.0795455,41.4906185 L39.0795455,48.9058965 C39.0795455,48.9058965 34.8734611,50.8154815 32.875,50.8154815 C30.8765389,50.8154815 26.6704545,48.9058965 26.6704545,48.9058965 L26.6704545,41.4906185 Z" id="Combined-Shape-Copy-10" fill="#FFDD95"></path>
        <circle id="Oval-34-Copy-3" fill="#FFDD95" cx="19.875" cy="28" r="3"></circle>
        <circle id="Oval-34-Copy-2" fill="#FFDD95" cx="45.875" cy="28" r="3"></circle>
        <path d="M16,27 L16,11.9911656 L16,11.9911656 C16,8.13005145 18.5416212,5 21.6716936,5 L44.3283064,5 C47.4606963,5 50,8.12869969 50,11.9911656 L50,27" id="Rectangle-185-Copy" stroke="#979797" stroke-width="2" stroke-linecap="round"></path>
        <path d="M39,45 L39,45 C48.9411255,45 57,36.9411255 57,27" id="Oval-66-Copy" stroke="#868686" stroke-width="2" stroke-linecap="round"></path>
        <rect id="Rectangle-184-Copy" stroke="#5B68C0" stroke-width="2" x="30" y="44" width="9" height="2" rx="1"></rect>
        <rect id="Rectangle-183-Copy" stroke="#979797" stroke-width="2" x="56" y="23" width="1" height="5"></rect>
        <path d="M16.875,14.5 C16.875,10.9101491 19.7854073,8 23.3699533,8 L42.3800467,8 C45.9671104,8 48.875,10.9174538 48.875,14.5 L48.875,21 L32.875,15.079188 L16.875,21 L16.875,14.5 Z" id="Rectangle-91-Copy-4" fill="#BD7575"></path>
        <rect id="Rectangle-182-Copy-3" fill="#5B68C0" x="47" y="17" width="8" height="17" rx="2"></rect>
        <rect id="Rectangle-182-Copy-2" fill="#5B68C0" x="11" y="17" width="8" height="17" rx="2"></rect>
    </g>
</svg>