<?xml version="1.0" encoding="UTF-8"?>
<svg width="64px" height="64px" viewBox="0 0 64 64" version="1.1" xmlns="http://www.w3.org/2000/svg" xmlns:xlink="http://www.w3.org/1999/xlink">
    <!-- Generator: Sketch 43.2 (39069) - http://www.bohemiancoding.com/sketch -->
    <title>timecapsule</title>
    <desc>Created with Sketch.</desc>
    <defs></defs>
    <g id="Business-(100)" stroke="none" stroke-width="1" fill="none" fill-rule="evenodd">
        <path d="M18,7 C18,21.9116882 26.2439533,34 31,34 C35.7560467,34 44,21.9116882 44,7 L18,7 Z" id="Combined-Shape" fill="#ECECEC"></path>
        <path d="M18,31 C18,45.9116882 26.2439533,58 31,58 C35.7560467,58 44,45.9116882 44,31 L18,31 Z" id="Combined-Shape-Copy-82" fill="#ECECEC" transform="translate(31.000000, 44.500000) scale(1, -1) translate(-31.000000, -44.500000) "></path>
        <path d="M20,42 C20,50.836556 26.9756528,58 31,58 C35.0243472,58 42,50.836556 42,42 L20,42 Z" id="Combined-Shape-Copy-83" fill="#FFDD95" transform="translate(31.000000, 50.000000) scale(1, -1) translate(-31.000000, -50.000000) "></path>
        <path d="M24,20 C24,25.5228475 28.4390518,30 31,30 C33.5609482,30 38,25.5228475 38,20 L24,20 Z" id="Combined-Shape-Copy-84" fill="#FFDD95" transform="translate(31.000000, 25.000000) scale(1, -1) rotate(-180.000000) translate(-31.000000, -25.000000) "></path>
        <rect id="Rectangle-464" fill="#FFAF40" x="16" y="4" width="30" height="3" rx="1"></rect>
        <rect id="Rectangle-464-Copy" fill="#FFAF40" x="16" y="58" width="30" height="3" rx="1"></rect>
    </g>
</svg>